<?xml version="1.0" encoding="UTF-8" standalone="no"?>
<svg
   xmlns:dc="http://purl.org/dc/elements/1.1/"
   xmlns:cc="http://creativecommons.org/ns#"
   xmlns:rdf="http://www.w3.org/1999/02/22-rdf-syntax-ns#"
   xmlns:svg="http://www.w3.org/2000/svg"
   xmlns="http://www.w3.org/2000/svg"
   xmlns:sodipodi="http://sodipodi.sourceforge.net/DTD/sodipodi-0.dtd"
   xmlns:inkscape="http://www.inkscape.org/namespaces/inkscape"
   sodipodi:docname="chevronicon.svg"
   inkscape:version="1.0 (4035a4fb49, 2020-05-01)"
   id="svg8"
   version="1.1"
   viewBox="0 0 6 7"
   height="7mm"
   width="6mm">
  <defs
     id="defs2">
    <inkscape:path-effect
       fuse_tolerance="0"
       hide_knot="false"
       vertical_pattern="false"
       prop_units="false"
       tang_offset="0"
       normal_offset="0"
       spacing="0"
       scale_y_rel="false"
       prop_scale="1"
       copytype="single_stretched"
       pattern="M 0,5 C 0,2.24 2.24,0 5,0 7.76,0 10,2.24 10,5 10,7.76 7.76,10 5,10 2.24,10 0,7.76 0,5 Z"
       lpeversion="1"
       is_visible="true"
       id="path-effect114"
       effect="skeletal" />
  </defs>
  <sodipodi:namedview
     inkscape:window-maximized="1"
     inkscape:window-y="-8"
     inkscape:window-x="-8"
     inkscape:window-height="715"
     inkscape:window-width="1366"
     showgrid="false"
     inkscape:document-rotation="0"
     inkscape:current-layer="layer1"
     inkscape:document-units="mm"
     inkscape:cy="13.228346"
     inkscape:cx="11.338583"
     inkscape:zoom="14.979027"
     inkscape:pageshadow="2"
     inkscape:pageopacity="0.0"
     borderopacity="1.0"
     bordercolor="#666666"
     pagecolor="#ffffff"
     id="base" />
  <metadata
     id="metadata5">
    <rdf:RDF>
      <cc:Work
         rdf:about="">
        <dc:format>image/svg+xml</dc:format>
        <dc:type
           rdf:resource="http://purl.org/dc/dcmitype/StillImage" />
        <dc:title></dc:title>
      </cc:Work>
    </rdf:RDF>
  </metadata>
  <g
     id="layer1"
     inkscape:groupmode="layer"
     inkscape:label="Layer 1">
    <g
       transform="matrix(0.26458333,0,0,0.26458333,-3.5656958,-2.7798089)"
       id="g64">
      <path
         d="M 20,12 17.17,14.83 26.34,24 17.17,33.17 20,36 32,24 Z"
         id="path50" />
      <path
         d="M 0,0 H 48 V 48 H 0 Z"
         fill="none"
         id="path52" />
    </g>
    <path
       transform="scale(0.26458333)"
       id="path66"
       d=""
       style="fill:#999999;stroke-width:0.75188" />
    <path
       transform="scale(0.26458333)"
       id="path68"
       d="M 5.4390321,23.517876 C 4.8087567,22.75844 5.5718955,21.587668 8.730427,18.468372 c 2.261553,-2.233461 4.111915,-4.40093 4.111915,-4.816598 0,-0.41567 -1.917186,-2.693164 -4.260412,-5.0610984 C 4.8763956,4.8460682 4.4523904,4.1276477 5.3263716,3.0745647 6.2196073,1.9982816 6.9851603,2.5138895 12.218342,7.716378 l 5.887116,5.852588 -5.432289,5.468788 c -2.9877592,3.007833 -5.653088,5.468788 -5.9229531,5.468788 -0.269865,0 -0.8598978,-0.4449 -1.3111838,-0.988666 z"
       style="fill:#999999;stroke-width:0.75188" />
    <path
       transform="scale(0.26458333)"
       id="path70"
       d="M 5.1296889,24.009876 3.7621176,22.641083 8.265146,18.137684 c 2.476666,-2.47687 4.514048,-4.492381 4.527515,-4.478912 0.04721,0.04721 -0.177914,0.413682 -0.557369,0.907312 -0.688839,0.896105 -1.699729,2.00427 -3.4689746,3.802783 -3.0062255,3.055957 -3.6897142,3.978923 -3.5394968,4.779651 0.084252,0.449104 1.0924412,1.363225 1.5017016,1.361588 0.383023,-0.0015 2.3655674,-1.851 7.5804388,-7.071609 l 3.87164,-3.875899 -0.400119,-0.391483 C 17.560417,12.955799 15.577406,10.995456 13.373789,8.814798 7.8372658,3.3359554 6.9911859,2.6129907 6.116756,2.613754 5.7474572,2.6140764 5.4665755,2.7886581 5.1910443,3.1891289 5.0297167,3.4236105 4.96397,3.6021701 4.9421711,3.8650369 c -0.064373,0.7762519 0.542574,1.5958471 3.226041,4.3563086 2.1668499,2.2290215 4.0356059,4.3146365 4.0375689,4.5061035 4e-4,0.03661 -1.900334,-1.834276 -4.2237984,-4.1575241 L 3.7575024,4.3458374 5.1457097,2.9633552 6.5339171,1.5808731 12.491127,7.5380829 18.448336,13.495292 12.50693,19.436981 c -3.2677739,3.267928 -5.956766,5.941688 -5.9755383,5.941688 -0.018772,0 -0.6495385,-0.615957 -1.4017028,-1.368793 z"
       style="fill:#999999;stroke-width:0.06676" />
    <path
       transform="scale(0.26458333)"
       id="path72"
       d="M 6.2732203,24.242158 C 5.9081807,23.977725 5.4790265,23.532393 5.3513981,23.285587 c -0.2152536,-0.416255 0.067472,-1.085066 0.8923704,-2.110981 0.2501461,-0.311103 1.3082775,-1.437678 2.3514032,-2.5035 2.7233813,-2.782637 4.2788913,-4.603996 4.2788913,-5.010187 0,-0.410986 -1.544547,-2.268877 -4.0114408,-4.8252465 C 6.183282,6.0591511 5.5218505,5.2995301 5.1627086,4.5865069 4.9369468,4.13829 4.9394989,3.7185711 5.1700821,3.3738708 5.4389505,2.9719376 5.6734457,2.7489886 5.895134,2.6845192 6.0855009,2.6291585 6.0875866,2.6251776 5.9291862,2.6195254 5.8363817,2.6162141 5.6917394,2.6616318 5.6077589,2.7204539 5.2860775,2.9457683 5.4226295,2.7519022 5.967167,2.2101934 L 6.5332924,1.6470089 12.44963,7.5633468 c 3.253986,3.2539862 5.897872,5.9462172 5.875302,5.9827362 -0.02257,0.03652 -1.5812,-1.455468 -3.463623,-3.315526 C 8.0606743,3.5107188 7.1707206,2.7139676 6.3854577,2.6423599 6.1404881,2.6200212 6.1281832,2.6241994 6.3023379,2.6705828 7.2023252,2.9102806 8.2431982,3.8400904 14.1085,9.6438118 l 3.938216,3.8968702 -3.023686,3.070758 c -2.739317,2.781963 -5.7082802,5.683859 -7.0224479,6.863819 -0.7108876,0.638288 -1.1593301,0.96877 -1.3145601,0.96877 -0.07377,0 -0.2595307,-0.09084 -0.4128017,-0.201871 z"
       style="fill:#999999;stroke-width:0.06676" />
    <path
       transform="scale(0.26458333)"
       id="path74"
       d="M 5.1630641,23.976491 3.8288985,22.641073 8.1983936,18.271196 c 2.4032224,-2.403432 4.3820334,-4.357339 4.3973584,-4.342014 0.01533,0.01532 -0.08552,0.186858 -0.224104,0.381184 -0.55113,0.772823 -1.534099,1.864139 -3.5311692,3.920392 -3.0412402,3.131367 -3.6439139,3.911071 -3.64151,4.71117 8.278e-4,0.275415 0.041864,0.389498 0.2346155,0.652232 0.128487,0.175137 0.4164462,0.453026 0.6399092,0.61753 0.5653893,0.416216 0.7158654,0.406102 1.3385649,-0.08997 0.5284597,-0.420999 2.20529,-1.975811 2.9567136,-2.741563 0.256041,-0.260924 0.496206,-0.474406 0.533701,-0.474406 0.03749,0 -0.9228738,0.991386 -2.1341508,2.20308 -1.211277,1.211695 -2.2177951,2.203081 -2.236707,2.203081 -0.018912,0 -0.6347599,-0.600939 -1.3685511,-1.335418 z"
       style="fill:#999999;stroke-width:0.06676" />
    <path
       transform="scale(0.26458333)"
       id="path76"
       d="M 6.2733189,24.242229 C 5.8846339,23.960667 5.4910634,23.55567 5.3601898,23.302588 5.0184006,22.64164 5.6904333,21.63247 8.1344233,19.136608 10.690317,16.526467 11.600586,15.534085 12.344834,14.546395 12.838565,13.891163 12.901012,13.745947 12.808971,13.46706 12.639635,12.953965 11.095525,11.154923 8.6348022,8.6037335 5.5708937,5.4271826 4.9963815,4.6921406 4.9963815,3.9486671 c 0,-0.4552846 0.4356223,-1.0877826 0.8679144,-1.2601609 0.1442789,-0.057532 0.1485442,-0.067111 0.03151,-0.07077 -0.074445,-0.00233 -0.2040665,0.043896 -0.288047,0.1027177 C 5.2860775,2.9457683 5.4226295,2.7519022 5.967167,2.2101934 L 6.5332924,1.6470089 12.44963,7.5633468 c 3.253986,3.2539862 5.898005,5.9460012 5.875598,5.9822572 -0.02241,0.03625 -1.520953,-1.395552 -3.330103,-3.181793 C 8.0931503,3.5492292 7.1885829,2.7345235 6.423936,2.6441026 6.2207667,2.6200775 6.2007875,2.6257157 6.3315817,2.6701658 6.8917364,2.8605327 7.7835479,3.5165113 8.9352222,4.5852929 10.140681,5.7039883 18.021138,13.509422 18.000662,13.564429 17.959489,13.675038 10.99345,20.668552 9.7473199,21.850324 8.396406,23.131468 7.391783,24.032605 7.0222561,24.294678 6.7428917,24.492807 6.6059978,24.483221 6.2733189,24.242229 Z"
       style="fill:#999999;stroke-width:0.06676" />
    <path
       transform="scale(0.26458333)"
       id="path78"
       d="M 6.1234675,24.124737 C 5.8946993,23.949128 5.6046048,23.656218 5.4788129,23.473827 5.2794051,23.184698 5.2550598,23.105907 5.2888072,22.858891 c 0.1001331,-0.73293 0.7832261,-1.60862 3.1220472,-4.002306 2.5898396,-2.650592 4.0343896,-4.290277 4.3475266,-4.934806 l 0.135956,-0.27984 -0.151224,-0.290246 C 12.373258,12.641829 11.019264,11.08494 8.3974737,8.3548655 5.6652585,5.509805 5.0686178,4.7521152 5.0107194,4.0539371 4.9907032,3.8125684 5.0155046,3.638054 5.0904086,3.4932057 5.2541157,3.1766311 5.6031067,2.8052462 5.8296404,2.7065391 5.9404771,2.6582445 5.9860987,2.6177399 5.9310217,2.6165289 5.8759447,2.6153179 5.7437964,2.6597423 5.637359,2.7152498 5.5309215,2.7707573 5.4342075,2.8065438 5.422439,2.7947753 5.4106704,2.7830067 5.655798,2.5199448 5.967167,2.2101934 L 6.5332924,1.6470089 12.44963,7.5633468 c 3.253986,3.2539862 5.898835,5.9446572 5.877444,5.9792702 -0.04078,0.06599 -0.171327,-0.05959 -4.351997,-4.1863513 C 8.4299042,3.8825932 7.1846863,2.7694434 6.4643694,2.6421454 6.2678276,2.6074115 6.2940136,2.6317657 6.6320018,2.798051 7.1322065,3.0441445 8.0220774,3.7336339 8.9352222,4.5826312 10.14968,5.711774 18.021122,13.509498 18.000698,13.563205 c -0.05045,0.132673 -6.131931,6.250844 -7.745126,7.791856 -2.5544103,2.440112 -3.3064172,3.088968 -3.5800321,3.088968 -0.074872,0 -0.3233043,-0.143681 -0.5520724,-0.319292 z"
       style="fill:#999999;stroke-width:0.06676" />
    <path
       transform="scale(0.26458333)"
       id="path80"
       d="M 6.1234675,24.124737 C 5.6264828,23.743236 5.2633997,23.247831 5.2634742,22.951329 c 1.622e-4,-0.646015 0.779557,-1.668114 3.0426887,-3.990186 2.7158631,-2.786594 4.2557331,-4.539491 4.4947711,-5.116581 0.07802,-0.188351 0.06883,-0.238856 -0.09975,-0.548592 C 12.304267,12.566693 10.972869,11.038746 8.3700402,8.3254291 6.3592586,6.2292918 6.127863,5.9751116 5.6385998,5.3250331 4.9492243,4.4090677 4.8326575,3.8992112 5.1854389,3.3429326 5.3807585,3.0349456 5.752783,2.6802645 5.8805105,2.6802645 c 0.040021,0 0.055528,-0.017236 0.034462,-0.038303 C 5.8939059,2.6208954 5.78096,2.6531526 5.6639816,2.7136445 5.5470032,2.7741364 5.4399868,2.8123231 5.4261676,2.7985039 5.4123483,2.7846845 5.655798,2.5199448 5.967167,2.2101934 L 6.5332924,1.6470089 12.44963,7.5633468 c 3.253986,3.2539862 5.897443,5.9469102 5.874351,5.9842752 -0.02309,0.03737 -1.37143,-1.242907 -2.996303,-2.845051 C 8.0656047,3.5420832 7.2823135,2.8281276 6.4984818,2.6549204 c -0.137011,-0.030276 -0.070673,0.026534 0.2099939,0.179835 0.5038821,0.2752207 1.3195728,0.9104713 2.1599865,1.682173 0.8927644,0.8197719 9.1461218,8.9783066 9.1461218,9.0410416 0,0.0284 -1.810031,1.867772 -4.022291,4.087493 -4.9150923,4.931668 -6.9209695,6.798566 -7.3046799,6.798566 -0.081512,0 -0.3353775,-0.143681 -0.5641456,-0.319292 z"
       style="fill:#999999;stroke-width:0.06676" />
    <path
       transform="scale(0.26458333)"
       id="path82"
       d="M 6.1234675,24.124737 C 5.6264828,23.743236 5.2633997,23.247831 5.2634742,22.951329 5.2636324,22.320806 6.0353521,21.295012 8.1357415,19.13342 10.928706,16.259073 12.261231,14.763035 12.70899,13.998991 12.873094,13.718969 12.8812,13.673789 12.80175,13.481979 12.532047,12.83086 11.11842,11.191834 8.23577,8.1879655 6.4550872,6.3324033 6.2458519,6.103778 5.7307522,5.450805 4.9679379,4.4838134 4.8213231,3.9170837 5.1854389,3.3429326 5.3807585,3.0349456 5.752783,2.6802645 5.8805105,2.6802645 c 0.040021,0 0.055528,-0.017236 0.034462,-0.038303 C 5.8939059,2.6208954 5.78096,2.6531526 5.6639816,2.7136445 5.5470032,2.7741364 5.4399868,2.8123231 5.4261676,2.7985039 5.4123483,2.7846845 5.655798,2.5199448 5.967167,2.2101934 L 6.5332924,1.6470089 12.44963,7.5633468 c 3.253986,3.2539862 5.897226,5.9472622 5.873866,5.9850592 -0.02336,0.0378 -1.326632,-1.196703 -2.896162,-2.743332 C 10.099685,5.5551596 9.1490377,4.6360354 8.114827,3.7350494 7.4238255,3.133061 6.8983943,2.7720503 6.6270385,2.7128268 6.4792111,2.6805634 6.516637,2.7185348 6.7809659,2.8689976 7.3369081,3.185454 8.1759599,3.871507 9.3139483,4.9400972 10.859029,6.3909544 18.023039,13.50441 18.000458,13.565309 c -0.01059,0.02856 -1.220934,1.276225 -2.689655,2.77259 -3.781392,3.852565 -7.4593553,7.384753 -8.2885469,7.960029 -0.302612,0.209946 -0.4322049,0.184975 -0.8987886,-0.173191 z"
       style="fill:#999999;stroke-width:0.06676" />
    <path
       transform="scale(0.26458333)"
       id="path84"
       d="M 6.146372,24.144305 C 5.9270764,23.979458 5.6624764,23.731612 5.5583721,23.593535 5.4542678,23.45546 5.3453158,23.332474 5.3162566,23.320235 5.1791141,23.262472 5.2732496,22.706678 5.4947105,22.266608 5.8360043,21.588415 6.4569683,20.860597 8.4886638,18.757463 11.172044,15.97973 12.220346,14.801186 12.674994,14.051019 l 0.221088,-0.364793 -0.136052,-0.27901 C 12.422321,12.71466 11.038064,11.121494 8.1675781,8.121682 7.1489125,7.0571218 6.1088187,5.9305466 5.8562585,5.6181815 4.9858026,4.5416065 4.8079088,3.9382359 5.1854389,3.3429326 5.3807585,3.0349456 5.752783,2.6802645 5.8805105,2.6802645 c 0.040021,0 0.055528,-0.017236 0.034462,-0.038303 C 5.8939059,2.6208954 5.78096,2.6531526 5.6639816,2.7136445 5.5470032,2.7741364 5.4399868,2.8123231 5.4261676,2.7985039 5.4123483,2.7846845 5.655798,2.5199448 5.967167,2.2101934 L 6.5332924,1.6470089 12.44963,7.5633468 c 3.253986,3.2539862 5.897184,5.9473302 5.873774,5.9852092 -0.02341,0.03788 -1.25158,-1.123011 -2.729263,-2.579756 C 8.9844387,4.4527562 7.9184203,3.4501754 7.0326448,2.9167892 6.4475668,2.5644736 6.4223113,2.6309116 6.9991819,3.0048177 8.0920685,3.7131863 9.2377125,4.789547 14.926933,10.453135 c 1.698208,1.690556 3.087651,3.091437 3.087651,3.113068 0,0.05997 -7.103802,7.192019 -8.2535775,8.286398 -1.1099114,1.056436 -2.410053,2.217284 -2.7387504,2.445327 -0.2988791,0.207357 -0.425134,0.185213 -0.8758841,-0.153623 z"
       style="fill:#999999;stroke-width:0.06676" />
    <path
       transform="scale(0.26458333)"
       id="path86"
       d=""
       style="fill:#999999;stroke-width:0.06676" />
    <path
       transform="scale(0.26458333)"
       id="path88"
       d=""
       style="fill:#999999;stroke-width:0.06676" />
    <path
       transform="scale(0.26458333)"
       id="path90"
       d="M 7.7980905,8.3192737 3.8294316,4.3501944 4.5597691,3.6175853 C 4.9614547,3.2146503 5.3039463,2.8988159 5.3208615,2.9157311 5.3377765,2.9326461 5.3053535,2.9992431 5.2488095,3.0637253 5.041087,3.3006088 4.9296216,3.6164327 4.9296216,3.9681064 c 0,0.7291033 0.4877139,1.4141771 2.5454106,3.5754442 2.8714648,3.0159944 4.3769488,4.6595714 4.3201248,4.7163944 -0.01562,0.01563 -1.814304,-1.757678 -3.9970665,-3.9406713 z"
       style="fill:#999999;stroke-width:0.06676" />
    <path
       transform="scale(0.26458333)"
       id="path92"
       d="M 6.1488303,24.146153 C 5.5983841,23.732376 5.2634215,23.288677 5.2634215,22.973322 c 0,-0.352764 0.3782212,-1.061893 0.9319581,-1.747335 0.258159,-0.319561 1.2746893,-1.416095 2.2589562,-2.43674 2.7947672,-2.898063 3.7661862,-3.988353 4.2185782,-4.734796 0.202516,-0.33415 0.211381,-0.373189 0.129583,-0.570668 C 12.53449,12.836758 11.100749,11.188103 7.8843354,7.8284054 5.0648606,4.8833289 4.6479583,4.1904517 5.1854389,3.3429326 5.3807585,3.0349456 5.752783,2.6802645 5.8805105,2.6802645 c 0.040021,0 0.055528,-0.017236 0.034462,-0.038303 C 5.8939059,2.6208954 5.78096,2.6531526 5.6639816,2.7136445 5.5470032,2.7741364 5.4399868,2.8123231 5.4261676,2.7985039 5.4123483,2.7846845 5.655798,2.5199448 5.967167,2.2101934 L 6.5332924,1.6470089 12.44963,7.5633468 c 3.253986,3.2539862 5.897337,5.9470822 5.874114,5.9846582 -0.02322,0.03758 -1.191308,-1.063256 -2.595743,-2.446293 C 8.686991,4.1679782 7.6672312,3.2163818 6.8189071,2.7881235 6.448349,2.6010552 6.4959827,2.6704541 6.9312276,2.9517664 7.5439281,3.3477738 8.1162888,3.8193523 9.1688823,4.7954107 10.53963,6.0664899 18.022705,13.504404 17.999821,13.573054 c -0.03807,0.114206 -5.629664,5.755245 -7.318062,7.382773 -2.7107095,2.61298 -3.7099234,3.488202 -3.9823773,3.488202 -0.08486,0 -0.3326078,-0.134044 -0.5505514,-0.297876 z"
       style="fill:#999999;stroke-width:0.06676" />
    <path
       transform="scale(0.26458333)"
       id="path94"
       d="m 6.1349524,24.135721 c -0.5542405,-0.416629 -0.8715309,-0.83932 -0.8715309,-1.161044 0,-0.354746 0.3774166,-1.06225 0.9345618,-1.751925 0.259591,-0.321341 1.2309259,-1.372811 2.1585219,-2.336601 C 11.429335,15.693425 12.402204,14.592959 12.743194,13.924127 12.855,13.704826 12.858579,13.65432 12.776274,13.457336 12.495681,12.785784 11.310393,11.423809 7.8808523,7.8321765 5.5752983,5.4176538 4.9963815,4.6387193 4.9963815,3.9511119 c 0,-0.357606 0.2352636,-0.7846624 0.6063075,-1.1005846 C 5.7363802,2.7366972 5.7755869,2.6776864 5.697362,2.7080342 5.623926,2.7365242 5.518779,2.7759252 5.463702,2.7955912 5.4086246,2.8152587 5.6265258,2.564648 5.9479266,2.238679 L 6.5322916,1.6460082 12.44913,7.5628465 c 3.254261,3.2542615 5.897785,5.9476675 5.874498,5.9853465 -0.02329,0.03768 -1.131288,-1.003269 -2.462223,-2.313218 C 8.6897033,4.1763552 7.6746714,3.2265104 6.8582148,2.8099853 6.4896866,2.6219762 6.5365726,2.68702 6.9824919,2.982392 c 0.6173697,0.4089389 1.243049,0.9295739 2.2691718,1.8882041 1.2736833,1.1899074 8.7629203,8.6241729 8.7629203,8.6985999 0,0.03198 -1.825052,1.885478 -4.055671,4.118877 -5.000696,5.006929 -6.8796846,6.755956 -7.2579581,6.755956 -0.085725,0 -0.340426,-0.138738 -0.5660025,-0.308308 z"
       style="fill:#999999;stroke-width:0.06676" />
    <path
       transform="scale(0.26458333)"
       id="path96"
       d=""
       style="fill:#999999;stroke-width:0.06676" />
    <path
       transform="scale(0.26458333)"
       id="path98"
       d="M 7.7980905,8.3192737 3.8294316,4.3501944 4.5597691,3.6175853 C 4.9614547,3.2146503 5.3039463,2.8988159 5.3208615,2.9157311 5.3377766,2.9326462 5.3028762,3.0003431 5.243305,3.0661686 4.8803203,3.4672621 4.8340568,4.1366968 5.1285891,4.7261082 5.4538895,5.3770917 5.9882334,5.9849448 9.2959211,9.4667363 10.658986,10.901548 11.836983,12.21812 11.795144,12.259959 11.779527,12.275576 9.9808529,10.502267 7.7980905,8.3192737 Z"
       style="fill:#999999;stroke-width:0.06676" />
    <path
       transform="scale(0.26458333)"
       id="path100"
       d="m 6.1349524,24.135721 c -0.5542405,-0.416629 -0.8715309,-0.83932 -0.8715309,-1.161044 0,-0.35436 0.3772495,-1.062045 0.9326299,-1.749525 0.2585285,-0.32002 1.2134292,-1.353721 2.1220015,-2.297113 3.3897891,-3.519697 4.5059401,-4.826254 4.5059401,-5.274616 0,-0.470386 -1.341161,-2.049889 -4.990311,-5.8771569 C 6.5530247,6.433099 5.7307416,5.5461284 5.7307416,5.5078912 5.7307416,5.4950228 5.6263573,5.3391987 5.4987764,5.1616154 5.0138949,4.4866957 4.8774767,3.9049706 5.1021839,3.4704347 5.1603753,3.357905 5.3331168,3.1294063 5.486054,2.9626598 5.6823652,2.7486229 5.7182763,2.683758 5.6081939,2.7420433 5.5224336,2.7874507 5.4407406,2.8130768 5.4266539,2.7989902 5.4125671,2.7849034 5.655798,2.5199448 5.967167,2.2101934 L 6.5332924,1.6470089 12.44963,7.5633468 c 3.253986,3.2539862 5.898978,5.9444272 5.877761,5.9787582 -0.04356,0.07048 -0.0885,0.02751 -4.485308,-4.2877244 C 8.8581529,4.3629098 7.6493056,3.2442292 6.9157318,2.8446582 c -0.1744105,-0.095 -0.31711,-0.1602386 -0.31711,-0.1449751 0,0.015264 0.2067487,0.1652304 0.4594415,0.3332598 1.0824662,0.7197915 2.1667701,1.7400799 7.6018297,7.1530311 1.84508,1.837574 3.354691,3.364252 3.354691,3.392617 0,0.02837 -1.810031,1.864138 -4.022291,4.079494 -5.0808383,5.087951 -6.9051766,6.785944 -7.2908769,6.785944 -0.085979,0 -0.3408872,-0.138738 -0.5664637,-0.308308 z"
       style="fill:#999999;stroke-width:0.06676" />
    <path
       transform="scale(0.26458333)"
       id="path102"
       d="M 6.1349524,24.135721 C 5.5866775,23.723576 5.2634056,23.295754 5.2634742,22.982398 5.2635744,22.511912 5.8132604,21.599552 6.646647,20.68662 c 0.2084087,-0.2283 1.2407985,-1.316352 2.2941994,-2.417893 3.0660626,-3.206178 3.8664566,-4.169582 3.8664566,-4.653908 0,-0.261697 -0.85791,-1.443174 -0.989075,-1.36211 -0.02961,0.0183 -1.8392088,-1.752275 -4.0213206,-3.9346182 L 3.8294316,4.3501944 4.5597691,3.6175853 c 0.4016856,-0.402935 0.7408392,-0.7221074 0.7536746,-0.709272 0.012835,0.012836 -0.053253,0.1361986 -0.1468626,0.2741404 -0.09361,0.1379418 -0.1686239,0.2841635 -0.1666979,0.3249371 0.00193,0.040774 0.054499,-7.017e-4 0.11683,-0.092167 0.062331,-0.091465 0.2184302,-0.2836218 0.346888,-0.4270142 0.2207369,-0.2464 0.2244021,-0.2579686 0.06676,-0.210715 -0.1208116,0.036214 -0.010651,-0.1084465 0.3995536,-0.524685 0.3114943,-0.3160759 0.5907621,-0.5665471 0.6205953,-0.5566027 0.029833,0.00994 2.4186706,2.3820697 5.3085279,5.2713897 6.861026,6.8597504 6.511568,6.5045844 6.468548,6.5741924 -0.02059,0.03331 -0.362267,-0.248899 -0.759285,-0.627137 -0.397018,-0.378238 -0.751367,-0.687706 -0.787441,-0.687706 -0.03608,0 0.233102,0.299819 0.598173,0.666264 l 0.663763,0.666264 -0.598256,0.623535 c -0.329041,0.342944 -2.14542,2.169692 -4.036397,4.059438 -4.5672674,4.564295 -6.3379179,6.201582 -6.7067269,6.201582 -0.085979,0 -0.3408872,-0.138738 -0.5664637,-0.308308 z M 11.737457,11.991255 c -0.04811,-0.05797 -0.150028,-0.137694 -0.226484,-0.177167 -0.105383,-0.05441 -0.09174,-0.0214 0.0564,0.136469 0.194601,0.207371 0.336609,0.241351 0.170081,0.0407 z m 4.841787,-0.03135 c -0.105535,-0.110154 -0.221923,-0.20028 -0.258641,-0.20028 -0.03672,0 0.01959,0.09013 0.125121,0.20028 0.105534,0.110154 0.221922,0.20028 0.25864,0.20028 0.03672,0 -0.01959,-0.09013 -0.12512,-0.20028 z m -5.279267,-0.473094 c -0.06974,-0.07706 -0.187221,-0.171141 -0.261067,-0.209063 -0.08274,-0.04249 -0.04635,0.02354 0.09483,0.172083 0.237801,0.250192 0.389789,0.284002 0.166237,0.03698 z m 4.778567,-0.02761 c -0.12456,-0.128513 -0.256514,-0.23366 -0.293232,-0.23366 -0.03672,0 0.03515,0.105147 0.159712,0.23366 0.124559,0.128513 0.256514,0.23366 0.293232,0.23366 0.03672,0 -0.03515,-0.105147 -0.159712,-0.23366 z m -5.412124,-0.67408 c -0.126004,-0.130976 -0.289182,-0.269268 -0.362618,-0.307314 -0.07344,-0.03805 0.01488,0.0839 0.196256,0.270981 0.181376,0.187086 0.344553,0.325377 0.362617,0.307315 0.01806,-0.01806 -0.07025,-0.140005 -0.196255,-0.270982 z m 4.711143,-0.0269 c -0.180829,-0.18359 -0.358823,-0.3338 -0.395541,-0.3338 -0.03672,0 0.08119,0.15021 0.262021,0.3338 0.18083,0.18359 0.358823,0.3338 0.395541,0.3338 0.03672,0 -0.08119,-0.15021 -0.262021,-0.3338 z M 9.8659507,9.9171513 C 9.6661531,9.7134031 9.4425983,9.5154577 9.3691623,9.4772736 9.2957263,9.4390895 9.444285,9.6207048 9.6992927,9.8808632 9.9543005,10.141022 10.177855,10.338966 10.196081,10.32074 10.214307,10.302515 10.065748,10.1209 9.8659507,9.9171513 Z m 4.6437323,-0.026806 c -0.255056,-0.257026 -0.493781,-0.4673201 -0.530499,-0.4673201 -0.03672,0 0.141923,0.2102941 0.396979,0.4673201 0.255057,0.2570267 0.493781,0.4673207 0.530499,0.4673207 0.03672,0 -0.141922,-0.210294 -0.396979,-0.4673207 z M 13.829667,9.2728157 C 13.806784,9.2269182 13.484776,8.9045294 13.114092,8.556396 l -0.673969,-0.63297 0.699787,0.71642 c 0.384884,0.394031 0.706892,0.7164197 0.715575,0.7164197 0.0087,0 -0.0029,-0.037553 -0.02582,-0.08345 z M 8.6646689,8.648643 C 8.3544981,8.3351413 8.0406381,8.04735 7.967202,8.0091064 7.893766,7.9708629 8.1325703,8.2423359 8.4978783,8.6123796 8.8631862,8.9824237 9.1770463,9.2702147 9.1953451,9.2519165 9.2136439,9.2336176 8.9748396,8.9621447 8.6646689,8.648643 Z M 7.3960041,7.3134818 C 7.1593929,7.073191 6.9057178,6.8453244 6.8322818,6.8071117 6.7588458,6.768899 6.9374963,6.9804411 7.229283,7.2772053 7.5210696,7.5739695 7.7747447,7.8018361 7.7930053,7.7835755 7.8112659,7.7653149 7.6326153,7.5537728 7.3960041,7.3134818 Z M 11.571199,7.0152459 c -0.440042,-0.4430467 -0.86016,-0.8370547 -0.933596,-0.8755733 -0.07344,-0.038519 0.272047,0.3224366 0.76774,0.8021226 0.495693,0.479686 0.915812,0.873694 0.933596,0.8755733 0.01778,0.00188 -0.327698,-0.3590758 -0.76774,-0.8021226 z M 6.5652418,6.4188252 C 6.4983757,6.3449389 6.428646,6.2995075 6.410287,6.3178665 6.391928,6.3362255 6.431616,6.4116985 6.498482,6.4855852 6.565348,6.5594712 6.6350778,6.6049028 6.6534368,6.5865438 6.6717958,6.5681848 6.6321078,6.4927118 6.5652418,6.4188252 Z M 6.3315817,6.2256877 c 0,-0.03279 -0.049312,-0.07854 -0.1095828,-0.1016683 -0.091626,-0.03516 -0.095757,-0.025391 -0.025206,0.059617 0.096143,0.1158449 0.1347884,0.1279015 0.1347888,0.042051 z M 10.470703,5.9973753 c 0,-0.011489 -0.09764,-0.1091259 -0.216971,-0.21697 l -0.21697,-0.1960803 0.196081,0.2169701 c 0.182774,0.2022464 0.23786,0.2476564 0.23786,0.1960802 z M 5.9647721,5.7516344 C 5.8981096,5.6779732 5.8129451,5.617705 5.7755174,5.617705 c -0.037428,0 0.0024,0.074987 0.088497,0.1666368 0.1836885,0.1955276 0.2792378,0.1645108 0.1007577,-0.032707 z m 4.0386099,-0.225895 c 0,-0.013863 -0.052573,-0.066437 -0.1168296,-0.11683 C 9.7806673,5.3258686 9.778306,5.3282299 9.8613468,5.434115 9.94856,5.5453204 10.003382,5.5806852 10.003382,5.5257394 Z m -0.2670396,-0.26704 c 0,-0.013863 -0.052573,-0.066437 -0.11683,-0.11683 -0.1058852,-0.083041 -0.1082465,-0.08068 -0.025206,0.025206 0.087213,0.1112054 0.1420356,0.1465703 0.142036,0.091624 z M 9.3026241,4.8169438 C 9.2800532,4.7804233 9.1956647,4.718323 9.1150941,4.6789433 8.9888904,4.6172597 8.9917168,4.6262503 9.1355023,4.7438598 9.3224121,4.896743 9.3628801,4.91444 9.3026241,4.8169438 Z M 8.4011421,4.0136585 C 8.1624751,3.7955518 7.9432025,3.6166066 7.9138697,3.6160027 c -0.029333,-6.008e-4 0.1509193,0.1779205 0.4005601,0.396721 0.5874184,0.5148493 0.649808,0.515522 0.086712,9.348e-4 z M 4.9738354,3.6649747 c -0.01852,-0.045898 -0.033673,-0.00835 -0.033673,0.08345 0,0.091795 0.015153,0.1293475 0.033673,0.08345 0.01852,-0.045898 0.01852,-0.1210025 0,-0.1669 z M 7.6969927,3.4111226 C 7.5453379,3.2435459 6.8103385,2.7470245 6.71393,2.7470245 c -0.059277,0 1.0030536,0.7834824 1.080029,0.7965354 0.01487,0.00252 -0.028765,-0.057075 -0.096966,-0.1324373 z"
       style="fill:#999999;stroke-width:0.06676" />
    <path
       transform="scale(0.26458333)"
       id="path104"
       d="m 6.1349524,24.135721 c -0.5542405,-0.416629 -0.8715309,-0.83932 -0.8715309,-1.161044 0,-0.342565 0.3698452,-1.05207 0.8870738,-1.701749 0.2338584,-0.293744 1.0987907,-1.236543 1.922072,-2.095109 3.7327147,-3.892695 4.7347357,-5.062428 4.7347357,-5.527209 0,-0.265922 -0.822671,-1.455297 -0.968025,-1.39952 -0.04364,0.01675 -1.8637068,-1.754105 -4.044595,-3.9352243 L 3.8294316,4.3501944 4.5597691,3.6175853 c 0.4016856,-0.402935 0.7408392,-0.7221074 0.7536746,-0.709272 0.012835,0.012836 -0.053253,0.1361986 -0.1468626,0.2741404 -0.09361,0.1379418 -0.1684329,0.2841635 -0.1662737,0.3249371 0.00216,0.040774 0.039712,0.016022 0.08345,-0.055004 0.043738,-0.071026 0.199692,-0.2630583 0.3465641,-0.4267393 0.2425802,-0.2703426 0.2517526,-0.2930808 0.10014,-0.2482448 -0.1203717,0.035597 -0.00399,-0.1152278 0.417465,-0.541019 L 6.5322916,1.6460082 12.44913,7.5628465 c 3.254261,3.2542615 5.899606,5.9447195 5.878546,5.9787965 -0.02106,0.03408 -0.36299,-0.247003 -0.759843,-0.624624 -0.396852,-0.37762 -0.751028,-0.687368 -0.787057,-0.688328 -0.03603,-9.61e-4 0.232378,0.297263 0.59646,0.662716 l 0.661968,0.664461 -0.5297,0.562352 c -0.291335,0.309294 -2.106906,2.137114 -4.034601,4.061823 -4.6822165,4.674963 -6.4005919,6.263986 -6.7738999,6.263986 -0.085751,0 -0.3404742,-0.138738 -0.5660507,-0.308308 z M 11.672383,11.926526 c -0.08596,-0.09151 -0.171321,-0.151352 -0.18968,-0.132993 -0.01836,0.01836 0.03695,0.108248 0.12292,0.199753 0.08596,0.09151 0.171321,0.151353 0.18968,0.132994 0.01836,-0.01836 -0.03696,-0.108249 -0.12292,-0.199754 z m 4.906861,0.03338 c -0.105535,-0.110154 -0.221923,-0.20028 -0.258641,-0.20028 -0.03672,0 0.01959,0.09013 0.125121,0.20028 0.105534,0.110154 0.221922,0.20028 0.25864,0.20028 0.03672,0 -0.01959,-0.09013 -0.12512,-0.20028 z m -5.232129,-0.384617 c -0.07954,-0.148629 -0.342332,-0.389417 -0.342332,-0.313673 0,0.05434 0.33388,0.43125 0.382018,0.43125 0.01278,0 -0.0051,-0.05291 -0.03969,-0.117577 z m 4.731429,-0.116083 c -0.12456,-0.128513 -0.256514,-0.23366 -0.293232,-0.23366 -0.03672,0 0.03515,0.105147 0.159712,0.23366 0.124559,0.128513 0.256514,0.23366 0.293232,0.23366 0.03672,0 -0.03515,-0.105147 -0.159712,-0.23366 z m -5.474321,-0.73436 c -0.160652,-0.163692 -0.307114,-0.2826 -0.325473,-0.264241 -0.01836,0.01836 0.09806,0.167309 0.258713,0.331001 0.160651,0.163692 0.307113,0.2826 0.325472,0.264241 0.01836,-0.01836 -0.09806,-0.167309 -0.258712,-0.331001 z m 4.77334,0.03338 c -0.180829,-0.18359 -0.358823,-0.3338 -0.395541,-0.3338 -0.03672,0 0.08119,0.15021 0.262021,0.3338 0.18083,0.18359 0.358823,0.3338 0.395541,0.3338 0.03672,0 -0.08119,-0.15021 -0.262021,-0.3338 z m -5.233389,-0.51739 C 10.060717,10.088929 9.3357823,9.3777418 9.3357823,9.4477743 c 0,0.052689 0.7983597,0.9098917 0.8474307,0.9098917 0.01383,0 -0.0037,-0.05257 -0.03904,-0.11683 z m 4.43018,-0.2885743 C 14.355195,9.7292893 14.115799,9.5155798 14.042363,9.4773524 c -0.07344,-0.038227 0.07597,0.1442043 0.33201,0.4054042 0.256041,0.2612004 0.495436,0.4749094 0.53199,0.4749094 0.03655,0 -0.112851,-0.182432 -0.332009,-0.4054043 z m -0.698891,-0.613879 c 0,-0.00984 -0.322951,-0.3327866 -0.71767,-0.7176701 l -0.71767,-0.6997871 0.699787,0.7176701 c 0.649977,0.6665874 0.735553,0.7480019 0.735553,0.6997871 z M 9.1424438,9.1726757 C 9.0548109,9.0139845 7.933822,7.9091415 7.933822,7.981462 c 0,0.053729 1.1983745,1.3080437 1.2497077,1.3080437 0.012887,0 -0.0056,-0.052573 -0.041086,-0.11683 z M 7.800302,7.7955799 c 0,-0.013863 -0.052574,-0.066437 -0.11683,-0.1168301 -0.1058851,-0.083041 -0.1082464,-0.08068 -0.025206,0.025206 0.087213,0.1112054 0.1420356,0.1465702 0.142036,0.091624 z M 11.605623,7.0530453 C 11.184563,6.6307882 10.822015,6.2853052 10.79996,6.2853052 c -0.04685,0 1.490983,1.5336369 1.538934,1.5347384 0.01776,4.08e-4 -0.312212,-0.3447412 -0.733271,-0.7669983 z M 7.3329819,7.2668741 c 0,-0.010907 -0.120168,-0.1371721 -0.26704,-0.2805888 C 6.7490932,6.6768908 6.7124817,6.7163121 7.0060977,7.0507223 7.1791349,7.2478008 7.3329819,7.349532 7.3329819,7.2668741 Z M 6.6006116,6.4893033 C 6.5257215,6.3493697 6.3983418,6.2466416 6.3983418,6.3261784 c 0,0.051491 0.2030512,0.2929268 0.2463558,0.2929268 0.01396,0 -0.00588,-0.058411 -0.044086,-0.1298019 z M 6.3009468,6.1562267 c -0.024203,-0.039161 -0.075953,-0.071202 -0.1149995,-0.071202 -0.044268,0 -0.039203,0.038306 0.013453,0.1017534 0.091564,0.110328 0.1733979,0.085707 0.1015465,-0.030551 z M 10.470703,5.9973753 c 0,-0.011489 -0.09764,-0.1091259 -0.216971,-0.21697 l -0.21697,-0.1960803 0.196081,0.2169701 c 0.182774,0.2022464 0.23786,0.2476564 0.23786,0.1960802 z M 5.9997715,5.8217032 C 5.9248813,5.6817695 5.7975016,5.5790415 5.7975016,5.6585783 c 0,0.051491 0.2030513,0.2929268 0.2463559,0.2929268 0.01396,0 -0.00588,-0.058411 -0.044086,-0.1298019 z M 10.003382,5.5257394 c 0,-0.013863 -0.052573,-0.066437 -0.1168296,-0.11683 C 9.7806673,5.3258686 9.778306,5.3282299 9.8613468,5.434115 9.94856,5.5453204 10.003382,5.5806852 10.003382,5.5257394 Z m -0.2670396,-0.26704 c 0,-0.013863 -0.052573,-0.066437 -0.11683,-0.11683 -0.1058852,-0.083041 -0.1082465,-0.08068 -0.025206,0.025206 0.087213,0.1112054 0.1420356,0.1465703 0.142036,0.091624 z M 8.7725688,4.356136 C 8.7522115,4.3231971 8.547655,4.1399378 8.3179987,3.9488931 L 7.900442,3.601539 8.3343821,4.0076838 C 8.7616996,4.4076303 8.8456561,4.4743937 8.7725688,4.356136 Z M 4.9738354,3.6649747 c -0.01852,-0.045898 -0.033673,-0.00835 -0.033673,0.08345 0,0.091795 0.015153,0.1293475 0.033673,0.08345 0.01852,-0.045898 0.01852,-0.1210025 0,-0.1669 z M 7.7277159,3.4409846 C 7.6788017,3.3820466 7.4723397,3.2220473 7.2689114,3.0854306 6.5334256,2.5914989 6.5389152,2.6438951 7.2794337,3.1858615 7.8078588,3.5726022 7.8629872,3.6039765 7.7277159,3.4409846 Z"
       style="fill:#999999;stroke-width:0.06676" />
    <path
       d="m 1.9468365,6.3528119 c -0.044088,0.00791 -0.08873,0.013645 -0.1335503,0.014158 -0.035185,-0.00101 -0.052028,-0.027045 -0.073231,-0.050955 -0.019682,-0.024426 -0.029595,-0.054679 -0.044297,-0.082153 -0.018476,-0.032815 -0.035882,-0.066109 -0.052938,-0.099678 -0.01269,-0.029639 -0.029609,-0.057325 -0.05023,-0.082075 -0.017424,-0.020435 -0.036517,-0.038705 -0.049031,-0.062725 -0.012041,-0.029516 -0.012927,-0.061716 -0.014002,-0.093135 -7.091e-4,-0.035188 -3.889e-4,-0.070386 -2.532e-4,-0.105578 0.00248,-0.032242 0.014689,-0.056695 0.03995,-0.076579 0.2155191,-0.1048067 -0.73237954,0.4079799 0.052079,-0.027384 0.071016,-0.039413 -0.140657,0.081253 -0.2108784,0.1220639 -0.00427,0.00249 0.00868,-0.00472 0.013025,-0.00707 0.089282,-0.043191 0.1840385,-0.1038508 0.2600642,-0.150785 0.00937,-0.00578 0.014294,-0.027082 0.020573,-0.036215 0.00794,-0.013536 0.015936,-0.031321 0.029228,-0.040726 0.026318,-0.018621 -0.00471,0.00883 0.019949,-0.014219 C 1.9328625,5.4582814 1.0009934,5.9953163 1.7866358,5.5413308 1.8577108,5.5002598 1.5064127,5.7120405 1.5736187,5.664904 1.6512677,5.610443 1.7381359,5.570377 1.818384,5.5198247 c 0.018358,-0.018822 0.039385,-0.033143 0.05152,-0.057099 0.013952,-0.021386 0.031595,-0.037055 0.053384,-0.050275 0.018188,-0.019309 0.041063,-0.033185 0.058064,-0.053788 0.011858,-0.013264 0.022651,-0.026901 0.032581,-0.041645 0,0 -0.2398951,0.1034246 -0.2398951,0.1034246 v 0 c -0.011078,0.013319 -0.022209,0.026609 -0.034673,0.038681 -0.019967,0.016801 -0.039205,0.034398 -0.059925,0.050245 -0.019366,0.017431 -0.036544,0.035658 -0.050031,0.058274 -0.016682,0.017777 -0.035379,0.034008 -0.055261,0.048072 -0.00344,0.00254 -0.014036,0.00974 -0.010318,0.00763 0.07152,-0.040676 0.2844641,-0.1655033 0.2138024,-0.123353 -0.077915,0.046477 -0.1584036,0.088615 -0.2355641,0.1363339 -0.069878,0.043214 0.2835481,-0.1660853 0.2137045,-0.1228158 -0.27855,0.1725668 -0.1653831,0.075313 -0.245606,0.1450266 -0.020418,0.016584 -0.032788,0.039474 -0.046218,0.061729 -0.00532,0.00884 -0.00694,0.013166 -0.014619,0.019992 -0.00298,0.00265 -0.013217,0.0089 -0.00975,0.00693 C 1.8142,5.534298 1.7049315,5.5912988 1.6286358,5.638888 1.5303772,5.6752942 1.5877321,5.6531279 1.3770359,5.7810026 1.3076592,5.8231081 1.6590845,5.6203074 1.5882831,5.6599708 1.5143224,5.701404 1.4002827,5.747128 1.3273088,5.8151101 c -0.020543,0.028426 -0.031003,0.058529 -0.030931,0.094139 -1.19e-4,0.035559 -4.392e-4,0.071133 7.593e-4,0.1066779 0.00179,0.035186 0.00444,0.070862 0.019098,0.1034475 0.013586,0.025874 0.032126,0.046974 0.051856,0.068227 0.020402,0.022048 0.03547,0.048655 0.047712,0.07596 0.016971,0.033829 0.035738,0.066519 0.052765,0.100311 0.015291,0.029461 0.026785,0.061252 0.047641,0.087384 0.024754,0.028261 0.046016,0.060603 0.085652,0.067992 0.045231,0.00406 0.090325,-0.00397 0.1352989,-0.00874 0,0 0.2096743,-0.1576927 0.2096743,-0.1576927 z"
       id="path108"
       style="fill:#999999;stroke-width:0.264583" />
    <path
       d="m 1.6359643,5.8097356 c -0.00236,-0.045467 0.00618,-0.090033 0.031824,-0.1278358 0.027755,-0.038115 0.063743,-0.068797 0.094423,-0.1041784 0.023869,-0.025006 0.054655,-0.041511 0.078939,-0.065794 0.016018,-0.021042 0.030578,-0.044479 0.050697,-0.061861 0.025342,-0.019807 0.043195,-0.046806 0.059889,-0.073867 0.013437,-0.028468 0.034939,-0.051829 0.050198,-0.079563 0.00942,-0.031043 0.032607,-0.052654 0.050715,-0.078158 0.019166,-0.028989 0.04754,-0.049401 0.070327,-0.075045 0.021559,-0.021132 0.046718,-0.038522 0.066182,-0.061889 0.00406,-0.00364 0.00783,-0.00765 0.012194,-0.010933 0.0042,-0.00316 0.017926,-0.010991 0.013387,-0.00834 -0.06995,0.040859 -0.2810417,0.1612008 -0.2096224,0.1229669 0.080402,-0.043043 0.1579913,-0.09115 0.2365901,-0.1374047 0.070211,-0.041318 -0.1409516,0.081731 -0.2114274,0.1225968 0.078363,-0.046065 0.1567267,-0.09213 0.23509,-0.1381953 0.020637,-0.01488 0.041586,-0.031737 0.057605,-0.051735 0.011642,-0.023768 0.03152,-0.040871 0.042297,-0.065154 0.018144,-0.017285 0.034436,-0.035738 0.048073,-0.057117 0.018672,-0.018616 0.036523,-0.037987 0.049876,-0.061074 0.01829,-0.022804 0.038037,-0.044276 0.052689,-0.069839 0.01797,-0.02541 0.038656,-0.048019 0.058634,-0.0719 0.021312,-0.021577 0.044617,-0.039758 0.070891,-0.054907 0.019468,-0.018968 0.042862,-0.033298 0.060307,-0.054408 0.019323,-0.019759 0.041027,-0.03786 0.058208,-0.059584 0.017777,-0.017772 0.037843,-0.033943 0.053466,-0.053764 0.019947,-0.023691 0.04114,-0.047682 0.068687,-0.062437 0.025263,-0.023455 0.052358,-0.045203 0.076739,-0.069464 0.023268,-0.024908 0.052655,-0.043023 0.070389,-0.072594 0.01655,-0.0244 0.038649,-0.043503 0.059896,-0.063907 0.020788,-0.030051 0.049521,-0.052848 0.072927,-0.080457 0.023365,-0.01964 0.047031,-0.039901 0.061896,-0.066849 0.018936,-0.019177 0.029312,-0.044423 0.045789,-0.065105 0.015116,-0.022929 0.031357,-0.046578 0.052617,-0.064543 0.021582,-0.020384 0.041156,-0.043635 0.064603,-0.061894 0.025604,-0.011427 0.04489,-0.03189 0.066743,-0.048713 0.019786,-0.018611 0.036712,-0.040661 0.05799,-0.057569 0.020823,-0.024146 0.037074,-0.051311 0.048571,-0.081008 0.019106,-0.033536 0.034244,-0.067562 0.042672,-0.1053219 0.011888,-0.028405 0.018976,-0.058365 0.032335,-0.086176 0.076981,-0.064348 -0.2241889,0.038878 -0.2239463,0.1235313 3.5e-5,0.012197 0.00132,0.024572 0.00159,0.036794 0.00206,0.039626 -0.019865,0.067515 -0.042501,0.096955 -0.022304,0.022318 -0.045245,0.04369 -0.066482,0.067098 -0.014925,0.027115 -0.043415,0.040827 -0.063937,0.062714 -0.017272,0.023712 -0.038068,0.044687 -0.055264,0.068391 -0.022871,0.027021 -0.042621,0.056048 -0.056558,0.088643 -0.00762,0.024138 -0.00434,0.011962 -0.00985,0.036519 0,0 0.2358708,-0.1125328 0.2358708,-0.1125328 v 0 c 0.00682,-0.02163 0.00288,-0.010978 0.011864,-0.031944 0.016671,-0.030178 0.037603,-0.057353 0.059742,-0.083724 0.018987,-0.021582 0.035033,-0.045839 0.056773,-0.064891 0.023392,-0.019024 0.044121,-0.040336 0.062793,-0.064011 0.022289,-0.02273 0.045876,-0.044428 0.064951,-0.070072 0.022855,-0.033256 0.037447,-0.071619 0.0356,-0.112581 -3.969e-4,-0.014362 2.638e-4,-0.030154 -0.00386,-0.044118 -0.029604,-0.1001636 -0.220272,0.022254 -0.2450428,0.113099 -0.010332,0.029525 -0.02127,0.058882 -0.029782,0.089004 -0.010612,0.035797 -0.028619,0.067865 -0.044745,0.1013796 -0.013904,0.026625 -0.030757,0.051832 -0.053542,0.07175 -0.018328,0.01969 -0.037992,0.038253 -0.058281,0.055893 -0.021042,0.018206 -0.045722,0.031429 -0.066508,0.049919 -0.02082,0.021328 -0.043235,0.04106 -0.063466,0.062995 -0.018693,0.021937 -0.036008,0.045009 -0.0514,0.069374 -0.013314,0.022897 -0.030898,0.042789 -0.045549,0.064842 -0.019587,0.022572 -0.042533,0.041736 -0.06306,0.063393 -0.025241,0.025477 -0.048336,0.052892 -0.073116,0.078777 -0.021709,0.021058 -0.041743,0.043115 -0.058922,0.068094 -0.022579,0.023905 -0.048377,0.044591 -0.07155,0.067933 -0.025927,0.022384 -0.050021,0.047127 -0.078687,0.066113 -0.024288,0.020746 -0.045908,0.044219 -0.067004,0.068162 -0.018526,0.017163 -0.035614,0.035861 -0.053289,0.053883 -0.019884,0.019029 -0.038169,0.039673 -0.058384,0.058389 -0.020431,0.016986 -0.040299,0.034739 -0.062443,0.04948 -0.024498,0.018486 -0.048351,0.037307 -0.06757,0.061637 -0.020376,0.024072 -0.04043,0.048313 -0.057579,0.074875 -0.017459,0.023336 -0.036584,0.045361 -0.052988,0.06949 -0.016426,0.020574 -0.035016,0.039231 -0.050629,0.060444 -0.016261,0.019471 -0.034154,0.037849 -0.046773,0.059917 -0.014373,0.020108 -0.028975,0.040357 -0.045023,0.059077 -0.019207,0.016407 -0.037475,0.033875 -0.059278,0.046983 0.5343934,-0.3076366 0.013495,-0.00786 -0.023974,0.014118 -0.070112,0.041134 0.2796913,-0.1656728 0.2113283,-0.1216938 -0.1018608,0.065529 -0.1887278,0.084909 -0.2610357,0.1613863 -0.022411,0.020368 -0.045673,0.039756 -0.06642,0.061889 -0.025105,0.024082 -0.048895,0.049522 -0.069194,0.07786 -0.0201,0.024728 -0.03493,0.052201 -0.049301,0.080577 -0.017267,0.026051 -0.036005,0.05106 -0.051034,0.078511 -0.018724,0.0254 -0.038144,0.049337 -0.062128,0.070105 -0.016131,0.020532 -0.032257,0.041496 -0.05116,0.059512 -0.027094,0.020886 -0.054065,0.042277 -0.076843,0.067958 -0.03296,0.034118 -0.065966,0.068822 -0.091222,0.1092298 -0.020975,0.044439 -0.02838,0.091923 -0.028285,0.1410131 0,0 0.2337917,-0.1191228 0.2337917,-0.1191228 z"
       id="path110"
       style="fill:#999999;stroke-width:0.264583" />
    <path
       d="m 2.7536267,2.5717104 c -0.031271,-0.027924 -0.052459,-0.063687 -0.073248,-0.099526 -0.017347,-0.030687 -0.045341,-0.049864 -0.074258,-0.06834 -0.026141,-0.014549 -0.051216,-0.030477 -0.075161,-0.048388 -0.022126,-0.019065 -0.035794,-0.045979 -0.052472,-0.069619 -0.017087,-0.023388 -0.033632,-0.046922 -0.049039,-0.071481 -0.017044,-0.030327 -0.046387,-0.048685 -0.072413,-0.07023 -0.02579,-0.023806 -0.054509,-0.043261 -0.072077,-0.074245 -0.00955,-0.030076 -0.017141,-0.059615 -0.035154,-0.085947 -0.02145,-0.02319 -0.049298,-0.039288 -0.074136,-0.058637 -0.00297,-0.00313 -0.00594,-0.00627 -0.00891,-0.0094 0,0 -0.2240287,0.1357219 -0.2240287,0.1357219 v 0 c 0.00371,0.00426 0.00741,0.00852 0.011116,0.012773 0.022359,0.01884 0.047349,0.034312 0.070098,0.052366 0.017724,0.025422 0.022483,0.055652 0.034501,0.083818 0.019484,0.03363 0.047969,0.056438 0.076763,0.081823 0.023297,0.020628 0.052048,0.035814 0.067619,0.063908 0.015719,0.025042 0.032785,0.048893 0.050433,0.07255 0.018759,0.025635 0.032701,0.055388 0.056363,0.077062 0.025023,0.017616 0.049247,0.036037 0.076536,0.050207 0.026407,0.014825 0.051931,0.030358 0.06814,0.056897 0.021904,0.036378 0.044164,0.072848 0.074243,0.1032129 0,0 0.2250803,-0.1345265 0.2250804,-0.1345267 z"
       id="path120"
       style="fill:#999999;stroke-width:0.264583" />
    <path
       d="M 2.0889545,1.9023868 C 2.07658,1.856278 2.0513275,1.8159845 2.0258362,1.7762202 2.0060812,1.7448532 1.9785572,1.7217512 1.9508892,1.6979462 1.9261892,1.6746252 1.9026262,1.6499002 1.8807542,1.6238642 1.8590342,1.5918852 1.8526662,1.5529622 1.8429552,1.516208 1.8338552,1.483783 1.8246142,1.45104 1.8137892,1.419094 1.7956882,1.38291 1.7843322,1.344004 1.7690222,1.3066522 1.7578472,1.2708392 1.7415902,1.2373762 1.7253712,1.2036938 1.7109532,1.1731988 1.6929722,1.1451028 1.6734592,1.1177088 1.6613862,1.0926278 1.6482842,1.0679578 1.6358982,1.0429618 1.6262382,1.0140728 1.6176402,0.9847361 1.6094642,0.955312 1.6055442,0.9261012 1.5947882,0.8986891 1.5888262,0.8699165 1.5845862,0.8369304 1.5788072,0.8037808 1.5680352,0.7722437 1.5602452,0.7535106 1.5556012,0.7339363 1.5520542,0.7140465 c 0,0 -0.2309218,0.12326074 -0.2309218,0.12326074 v 0 c 0.0043,0.0208555 0.00961,0.0414077 0.017659,0.0611884 0.010005,0.0309585 0.014219,0.063291 0.019243,0.095333 0.00665,0.0291145 0.016534,0.0573365 0.021452,0.0868589 0.00904,0.030741 0.017414,0.061777 0.028797,0.091691 0.01289,0.026335 0.026086,0.052575 0.039539,0.078558 0.018771,0.026098 0.037041,0.052237 0.050136,0.081848 0.016063,0.033067 0.032125,0.065976 0.043614,0.1010059 0.014765,0.036964 0.02608,0.075224 0.042945,0.1113332 0.00983,0.031847 0.020408,0.063474 0.029093,0.095611 0.010969,0.040376 0.019127,0.082337 0.043089,0.117548 0.022361,0.027422 0.046971,0.052804 0.071869,0.077867 0.025455,0.022869 0.053647,0.041781 0.072431,0.071351 0.024622,0.038003 0.049664,0.076079 0.05824,0.121403 0,0 0.2297171,-0.1265153 0.229717,-0.1265153 z"
       id="path122"
       style="fill:#999999;stroke-width:0.264583" />
    <path
       d="M 1.7679167,1.5475323 C 1.7412593,1.5103231 1.7209645,1.4694832 1.6991455,1.4294771 1.685808,1.3995555 1.6693342,1.3713013 1.65413,1.3423255 1.6415164,1.3136579 1.6385669,1.282412 1.6300408,1.2524507 1.6215308,1.2227017 1.6197758,1.1917627 1.6185098,1.1610287 1.6174998,1.1262957 1.61766,1.0915417 1.6176981,1.0567974 c -0.00111,-0.035212 0.00292,-0.0707617 -0.00261,-0.10563728 -0.00482,-0.0291833 -0.014773,-0.057385 -0.02819,-0.0836942 -0.00196,-0.003896 -0.00393,-0.007792 -0.00589,-0.0116882 0,0 -0.2278916,0.12986166 -0.2278916,0.12986166 v 0 c 0.00198,0.003932 0.00397,0.007864 0.00595,0.0117959 0.012107,0.0237218 0.020573,0.049306 0.024393,0.0756867 0.00357,0.033933 2.963e-4,0.068257 0.00134,0.1023237 -1.25e-5,0.035144 -1.445e-4,0.070305 0.00124,0.1054289 0.00176,0.032659 0.00454,0.065408 0.013986,0.096903 0.00894,0.031572 0.012072,0.064784 0.026889,0.094493 0.015275,0.029187 0.031845,0.05765 0.046206,0.087299 0.022495,0.039114 0.043106,0.079306 0.06704,0.1176435 0,0 0.2277564,-0.1296809 0.2277562,-0.1296808 z"
       id="path124"
       style="fill:#999999;stroke-width:0.264583" />
    <path
       d="M 2.462751,1.1762675 C 2.42114,1.1627635 2.384215,1.1407915 2.3493842,1.1148605 2.3232902,1.0971775 2.2973692,1.0790565 2.2738592,1.0580005 2.2531902,1.0386905 2.2390342,1.0143045 2.2238912,0.9908093 2.2104492,0.9676305 2.1934582,0.9466183 2.1750932,0.9271701 2.1580372,0.9086825 2.1404382,0.8906326 2.1222872,0.8732066 2.1024122,0.8555817 2.0864592,0.8348183 2.0700772,0.814115 2.0482032,0.7877028 2.0210812,0.7665558 1.9960532,0.7433433 1.9738292,0.7229584 1.9579092,0.6975913 1.9414672,0.6727045 c -0.00226,-0.003768 -0.00453,-0.007536 -0.00679,-0.0113043 0,0 -0.2267848,0.13150453 -0.2267848,0.13150453 v 0 c 0.0025,0.004138 0.005,0.008276 0.00751,0.012414 0.017998,0.0261512 0.034676,0.0532448 0.057824,0.0754487 0.0238,0.0228568 0.051168,0.0419433 0.07202,0.0678311 0.017547,0.0213508 0.032925,0.0443285 0.053878,0.0626843 0.018668,0.016238 0.035162,0.035007 0.052169,0.052907 0.018123,0.017197 0.033377,0.037677 0.046322,0.058976 0.016674,0.024957 0.031698,0.051107 0.053102,0.07258 0.023444,0.022793 0.050974,0.041208 0.078524,0.058656 0.036899,0.026773 0.074236,0.051339 0.1164986,0.069109 0,0 0.2170153,-0.1472427 0.2170152,-0.1472427 z"
       id="path126"
       style="fill:#999999;stroke-width:0.264583" />
    <path
       d="m 4.8026026,3.4902169 c -0.028642,-0.031897 -0.065514,-0.054275 -0.099163,-0.080271 -0.025813,-0.018611 -0.049462,-0.039685 -0.074792,-0.058924 -0.025717,-0.01755 -0.045898,-0.041219 -0.070947,-0.059619 -0.02884,-0.019259 -0.060571,-0.034062 -0.092336,-0.047853 -0.024082,-0.010226 -0.0457,-0.025019 -0.068104,-0.038346 -0.021593,-0.016126 -0.044878,-0.03106 -0.061718,-0.052383 -0.014724,-0.025281 -0.012155,-0.055287 -0.018071,-0.082992 -0.00571,-0.028544 -0.015243,-0.056392 -0.028291,-0.082413 -0.011491,-0.02422 -0.028819,-0.045171 -0.047191,-0.06449 -0.01959,-0.020188 -0.03949,-0.040575 -0.061692,-0.057921 -0.02534,-0.019063 -0.055442,-0.029634 -0.082655,-0.045507 -0.02697,-0.015137 -0.053219,-0.029702 -0.07742,-0.049082 C 3.9991511,2.7513417 3.9788012,2.7315437 3.9599356,2.7102805 3.9445686,2.68537 3.9218264,2.6670108 3.9006208,2.6474134 3.8800651,2.6264017 3.8634873,2.6021121 3.8428019,2.5811621 3.823241,2.5597165 3.8038995,2.5380204 3.7833649,2.517492 3.7658632,2.4988098 3.747272,2.4812432 3.7301802,2.4621694 3.7121856,2.4349981 3.6937539,2.4084275 3.6746809,2.3819939 3.6524599,2.3525754 3.6280029,2.3247621 3.6033098,2.2973699 3.5783316,2.271455 3.5482207,2.2517543 3.5174748,2.2335072 3.4935115,2.2178611 3.4695111,2.2029751 3.4438545,2.1902013 3.4064995,2.1742395 3.3668104,2.164982 3.3268173,2.1586781 c -0.043953,-0.00474 -0.087747,-0.00752 -0.1311931,-0.015905 0,0 -0.2142958,0.1496599 -0.2142958,0.1496599 v 0 c 0.044248,0.00819 0.088085,0.014294 0.1331804,0.015905 0.038064,0.00493 0.074675,0.013863 0.1109475,0.026278 0.025511,0.011317 0.04869,0.025699 0.071887,0.040901 0.028165,0.018062 0.059012,0.032461 0.082763,0.056912 0.023815,0.026902 0.047509,0.054141 0.06942,0.08253 0.019386,0.027202 0.038636,0.054147 0.056212,0.082599 0.017092,0.020253 0.036329,0.038087 0.054333,0.057447 0.02132,0.019383 0.039962,0.041703 0.059397,0.062923 0.021008,0.020981 0.038118,0.044945 0.057856,0.067026 0.020042,0.019701 0.044182,0.03546 0.058242,0.060594 0.019444,0.023051 0.041287,0.043443 0.063199,0.064101 0.024919,0.019571 0.049143,0.038713 0.078409,0.051538 0.02585,0.017918 0.056115,0.026547 0.081977,0.044327 0.022516,0.014533 0.040213,0.035753 0.059088,0.054536 0.017378,0.016301 0.032481,0.035776 0.043017,0.057163 0.011975,0.023955 0.020164,0.04973 0.025215,0.076004 0.00557,0.031879 0.00547,0.065347 0.02372,0.093573 0.018105,0.024403 0.042795,0.04123 0.066267,0.060111 0.02263,0.015885 0.047505,0.028659 0.071478,0.042473 0.031049,0.010917 0.061137,0.02608 0.089345,0.042821 0.026236,0.01638 0.043753,0.041704 0.069634,0.058445 0.024813,0.019926 0.04994,0.039359 0.075402,0.058517 0.031741,0.02518 0.068896,0.04414 0.095209,0.075587 0,0 0.2250802,-0.1345263 0.2250802,-0.1345263 z"
       id="path128"
       style="fill:#999999;stroke-width:0.264583" />
    <path
       d="m 4.5992817,3.6049558 c 0.00132,0.037627 0.0041,0.079531 -0.020299,0.1105998 -0.010978,0.013221 -0.022736,0.029719 -0.03809,0.038439 -0.00376,0.00214 -0.01564,0.00732 -0.011917,0.00512 0.070542,-0.04163 0.1416382,-0.082317 0.2124571,-0.1234761 C 4.640694,3.683922 4.519904,3.7193177 4.4573917,3.8139618 4.439191,3.8313 4.4269067,3.8529593 4.4035731,3.8640279 c -0.02286,0.018883 -0.04949,0.032984 -0.071962,0.052454 -0.021193,0.024675 -0.042438,0.049412 -0.0598,0.077125 -0.020013,0.022389 -0.034537,0.049763 -0.061687,0.064164 -0.00334,0.00296 -0.0064,0.00626 -0.010012,0.00888 -0.024376,0.017687 -0.028873,0.029149 -0.048582,0.049578 -0.018418,0.024188 -0.03926,0.046628 -0.055858,0.0724 -0.014179,0.026613 -0.029557,0.054533 -0.051693,0.075372 -0.019145,0.025173 -0.037472,0.050463 -0.059603,0.073074 -0.02974,0.024479 -0.058242,0.050559 -0.087646,0.075476 -0.083918,0.057892 -0.2584899,0.1554845 0.1283383,-0.069286 -0.024786,0.018251 -0.058055,0.019706 -0.084278,0.034448 -0.080124,0.045046 -0.1593625,0.091651 -0.2390439,0.1374761 -0.02317,0.023948 -0.048209,0.045821 -0.068664,0.072223 -0.013869,0.026239 -0.022378,0.055385 -0.04327,0.077201 0.016997,5.292e-4 -0.057787,0.037348 -0.039514,0.02655 C 3.9047049,4.4817548 3.8163817,4.5570804 3.7261212,4.5801975 3.6816834,4.590167 3.6393104,4.5767579 3.5980915,4.5609464 3.553197,4.5410339 3.5117534,4.5137755 3.480177,4.4759573 3.4539409,4.43651 3.4550469,4.3875182 3.4532993,4.3419058 3.4520822,4.2862648 3.4531194,4.230616 3.4539078,4.1749784 c 2.911e-4,-0.00518 0.00545,-0.017986 8.732e-4,-0.015544 -0.079755,0.042527 -0.1608178,0.084395 -0.2327151,0.139169 -0.00979,0.00746 0.00153,0.02458 0.00161,0.036887 4.762e-4,0.065565 -0.00649,0.1299274 -0.014004,0.1949604 -0.022077,0.1930543 -0.077839,0.3789852 -0.1478003,0.5594834 -0.045392,0.1032753 -0.093752,0.2115656 -0.1740765,0.2930088 -0.00693,0.0049 -0.028142,0.018947 -0.020791,0.014706 0.068162,-0.039332 0.1356047,-0.0799 0.2033045,-0.120023 -0.012726,0.00946 -0.028626,0.01375 -0.042062,0.021778 -0.078584,0.046954 -0.1566379,0.094791 -0.2349569,0.1421868 -0.02395,0.022191 -0.044415,0.048037 -0.068482,0.070102 -0.023823,0.02654 -0.048907,0.052187 -0.072695,0.078796 -0.030644,0.018381 -0.034264,0.051111 -0.048473,0.08004 -0.00902,0.027247 -0.01515,0.05422 -0.028993,0.079633 -0.011243,0.026796 -0.018686,0.056395 -0.044049,0.073095 0.010439,-0.00156 -0.02725,0.020394 -0.019893,0.016084 0.070808,-0.041484 0.2840813,-0.1644311 0.2122183,-0.1248024 -0.079422,0.043797 -0.1564766,0.091756 -0.2349028,0.1373119 -0.00372,0.00217 -0.015221,0.00798 -0.011506,0.00582 0.070856,-0.041224 0.1419654,-0.082013 0.2129481,-0.1230198 -0.10214,0.048274 -0.1979402,0.1094388 -0.2957832,0.1657641 -0.021684,0.023561 -0.050853,0.036251 -0.070107,0.062057 -0.022053,0.017891 -0.033527,0.043839 -0.050857,0.065223 -0.014352,0.023995 -0.035195,0.041945 -0.049764,0.066075 -0.013714,0.027401 -0.028954,0.055985 -0.051162,0.077469 -0.024841,0.020275 -0.043026,0.04689 -0.067012,0.0679 -0.00417,0.00235 -0.00861,0.00429 -0.012514,0.00707 -0.017864,0.015759 -0.00301,0.0038 -0.022259,0.01638 -0.0041,0.00268 -0.016274,0.010922 -0.012027,0.00847 C 2.2861384,6.1393215 2.338302,6.1154759 2.249989,6.1568755 2.217279,6.1691605 2.186663,6.1861105 2.153781,6.1979085 2.118052,6.2080285 2.085746,6.2266575 2.0524145,6.2425195 1.9486321,6.3112835 1.8025119,6.3583351 1.7178343,6.461495 c -0.0095,0.016783 -0.021446,0.031458 -0.031298,0.047996 0,0 0.2393966,-0.1052459 0.2393966,-0.1052459 v 0 c 0.01029,-0.014854 0.020173,-0.030054 0.032118,-0.043672 0.073768,-0.073723 0.2758048,-0.1774706 -0.1093371,0.043945 0.033106,-0.015039 0.064986,-0.032038 0.098117,-0.046863 0.034569,-0.00842 0.065816,-0.023889 0.097529,-0.039688 0.1121539,-0.033298 0.2135934,-0.1032158 0.302442,-0.178866 0.021648,-0.023889 0.04473,-0.046395 0.066334,-0.07029 0.017774,-0.025757 0.033607,-0.052555 0.049638,-0.079414 0.017395,-0.021685 0.036199,-0.042191 0.050589,-0.066155 0.014307,-0.022945 0.033425,-0.04215 0.051778,-0.061891 0.023194,-0.019653 0.048164,-0.037773 0.073102,-0.055029 -0.3849978,0.2210946 -0.2416054,0.1360766 -0.1542923,0.09122 0.07915,-0.044644 0.1584413,-0.089039 0.237451,-0.1339312 0.00381,-0.00217 0.014788,-0.0094 0.010985,-0.00723 -0.071258,0.040805 -0.2813119,0.1692312 -0.2133685,0.1231183 0.075184,-0.051027 0.1573065,-0.091013 0.2351414,-0.1378956 2.106e-4,-1.267e-4 0.018386,-0.018344 0.018743,-0.018701 0.017497,-0.02504 0.027509,-0.053651 0.040174,-0.081264 0.010877,-0.026493 0.017259,-0.054287 0.028713,-0.080545 0.010893,-0.029195 0.027662,-0.051007 0.051406,-0.0714 0.025072,-0.025543 0.04702,-0.053906 0.0734,-0.078183 0.021918,-0.023942 0.045038,-0.046924 0.06913,-0.068656 -0.070453,0.040415 -0.1407245,0.081148 -0.211359,0.1212442 -0.00411,0.00233 0.00754,-0.00578 0.01175,-0.00793 0.043895,-0.022426 -0.014756,0.012517 0.031592,-0.014565 0.080201,-0.046866 0.1611255,-0.092537 0.2402385,-0.1412164 0.00721,-0.00444 0.012099,-0.011848 0.01815,-0.017772 C 3.1966969,5.1945394 3.2440151,5.089958 3.2857008,4.9858378 3.352348,4.8023274 3.4068471,4.61441 3.4326532,4.4203485 c 0.00922,-0.06735 0.016918,-0.1338408 0.020275,-0.2017403 6.35e-4,-0.012851 0.013883,-0.041777 0.00143,-0.038574 -0.2391479,0.061456 -0.2363385,0.016153 -0.2324108,0.1129501 8.57e-5,0.055744 -4.07e-5,0.1115002 0.00127,0.1672299 0.00188,0.05186 0.00233,0.1057958 0.033649,0.1498013 0.034038,0.040966 0.077487,0.071808 0.1252328,0.095262 0.042465,0.018804 0.088263,0.036862 0.1355061,0.032034 0.1202915,-0.012285 0.2336231,-0.086655 0.3127555,-0.1763197 0.014999,-0.025022 0.025223,-0.052975 0.043844,-0.075586 0.022193,-0.023125 0.044088,-0.047257 0.071402,-0.064486 -0.069846,0.039835 -0.1396931,0.079671 -0.2095396,0.1195057 0.00494,-0.00277 0.00962,-0.00606 0.014827,-0.0083 0.023053,-0.00993 0.048211,-0.014489 0.071138,-0.024776 0.1033116,-0.05979 0.2207639,-0.1162632 0.3165338,-0.1932763 0.028594,-0.026526 0.06104,-0.048674 0.086898,-0.078087 0.020735,-0.02409 0.039092,-0.050153 0.060015,-0.074115 0.017772,-0.025112 0.033953,-0.051101 0.050031,-0.077323 0.018669,-0.023752 0.037904,-0.047006 0.057468,-0.070008 0.017431,-0.02127 0.03859,-0.037609 0.060758,-0.053714 0.021553,-0.02186 0.039628,-0.046854 0.057718,-0.071594 0.019032,-0.024919 0.038259,-0.050258 0.063098,-0.06974 0.024686,-0.016796 0.04907,-0.034025 0.073121,-0.051683 0.01827,-0.017732 0.034405,-0.037523 0.051141,-0.056678 0.00583,-0.00566 0.011068,-0.012007 0.017439,-0.01706 0.00304,-0.00241 0.013269,-0.00805 0.0099,-0.00613 -0.3665754,0.2084779 -0.2708801,0.1517372 -0.1903775,0.1103342 0.092857,-0.052505 0.2252877,-0.087888 0.2820231,-0.1897515 0.014851,-0.03938 0.014896,-0.081033 0.015266,-0.1226855 0,0 -0.2337916,0.1191229 -0.2337916,0.1191229 z"
       id="path130"
       style="fill:#999999;stroke-width:0.264583" />
    <circle
       r="0.0023344087"
       cy="6.5001998"
       cx="1.7840222"
       style="fill:#999999;stroke:#000000;stroke-width:0.264583"
       id="path132" />
  </g>
</svg>
