<?xml version="1.0" encoding="UTF-8" standalone="no"?>
<svg
   xmlns:dc="http://purl.org/dc/elements/1.1/"
   xmlns:cc="http://creativecommons.org/ns#"
   xmlns:rdf="http://www.w3.org/1999/02/22-rdf-syntax-ns#"
   xmlns:svg="http://www.w3.org/2000/svg"
   xmlns="http://www.w3.org/2000/svg"
   xmlns:sodipodi="http://sodipodi.sourceforge.net/DTD/sodipodi-0.dtd"
   xmlns:inkscape="http://www.inkscape.org/namespaces/inkscape"
   sodipodi:docname="linkedInInicioLogo.svg"
   inkscape:version="1.0 (1.0+r73+1)"
   id="svg8"
   version="1.1"
   viewBox="0 0 38 38"
   height="38mm"
   width="38mm">
  <defs
     id="defs2" />
  <sodipodi:namedview
     inkscape:window-maximized="1"
     inkscape:window-y="0"
     inkscape:window-x="46"
     inkscape:window-height="1043"
     inkscape:window-width="1874"
     showgrid="false"
     inkscape:document-rotation="0"
     inkscape:current-layer="layer1"
     inkscape:document-units="mm"
     inkscape:cy="314.87805"
     inkscape:cx="178.67914"
     inkscape:zoom="0.82"
     inkscape:pageshadow="2"
     inkscape:pageopacity="0.0"
     borderopacity="1.0"
     bordercolor="#666666"
     pagecolor="#ffffff"
     id="base" />
  <metadata
     id="metadata5">
    <rdf:RDF>
      <cc:Work
         rdf:about="">
        <dc:format>image/svg+xml</dc:format>
        <dc:type
           rdf:resource="http://purl.org/dc/dcmitype/StillImage" />
        <dc:title></dc:title>
      </cc:Work>
    </rdf:RDF>
  </metadata>
  <g
     id="layer1"
     inkscape:groupmode="layer"
     inkscape:label="Layer 1">
    <g
       transform="matrix(0.09505627,0,0,0.09505627,0.68460009,0.8888627)"
       id="g146">
      <path
         style="fill:#0077b7"
         d="M 347.445,0 H 34.555 C 15.471,0 0,15.471 0,34.555 V 347.444 C 0,366.529 15.471,382 34.555,382 H 347.444 C 366.529,382 382,366.529 382,347.444 V 34.555 C 382,15.471 366.529,0 347.445,0 Z M 118.207,329.844 c 0,5.554 -4.502,10.056 -10.056,10.056 H 65.345 c -5.554,0 -10.056,-4.502 -10.056,-10.056 V 150.403 c 0,-5.554 4.502,-10.056 10.056,-10.056 h 42.806 c 5.554,0 10.056,4.502 10.056,10.056 z M 86.748,123.432 c -22.459,0 -40.666,-18.207 -40.666,-40.666 0,-22.459 18.207,-40.666 40.666,-40.666 22.459,0 40.666,18.207 40.666,40.666 0,22.459 -18.206,40.666 -40.666,40.666 z M 341.91,330.654 c 0,5.106 -4.14,9.246 -9.246,9.246 H 286.73 c -5.106,0 -9.246,-4.14 -9.246,-9.246 v -84.168 c 0,-12.556 3.683,-55.021 -32.813,-55.021 -28.309,0 -34.051,29.066 -35.204,42.11 v 97.079 c 0,5.106 -4.139,9.246 -9.246,9.246 h -44.426 c -5.106,0 -9.246,-4.14 -9.246,-9.246 V 149.593 c 0,-5.106 4.14,-9.246 9.246,-9.246 h 44.426 c 5.106,0 9.246,4.14 9.246,9.246 v 15.655 c 10.497,-15.753 26.097,-27.912 59.312,-27.912 73.552,0 73.131,68.716 73.131,106.472 z"
         id="path91" />
      <g
         id="g93">
</g>
      <g
         id="g95">
</g>
      <g
         id="g97">
</g>
      <g
         id="g99">
</g>
      <g
         id="g101">
</g>
      <g
         id="g103">
</g>
      <g
         id="g105">
</g>
      <g
         id="g107">
</g>
      <g
         id="g109">
</g>
      <g
         id="g111">
</g>
      <g
         id="g113">
</g>
      <g
         id="g115">
</g>
      <g
         id="g117">
</g>
      <g
         id="g119">
</g>
      <g
         id="g121">
</g>
    </g>
    <path
       transform="scale(0.26458333)"
       id="path148"
       d="m 24.696042,124.25388 c -1.197947,-0.78167 -1.471316,-8.64297 -1.219512,-35.069721 l 0.324557,-34.062208 h 9.756098 9.756097 v 34.756098 34.756101 l -8.536585,0.31362 c -4.695122,0.17249 -9.231417,-0.13976 -10.080655,-0.69389 z"
       style="fill:#ffffff;stroke-width:1.21951" />
    <path
       transform="scale(0.26458333)"
       id="path150"
       d="m 56.689332,123.75383 c -0.33628,-0.87633 -0.465167,-16.677 -0.286417,-35.112601 l 0.325001,-33.519278 h 9.756098 9.756098 l 0.382143,3.963415 c 0.210181,2.179878 0.56373,3.963414 0.785665,3.963414 0.221937,0 2.151087,-1.632471 4.287001,-3.627714 8.941559,-8.352667 26.342789,-8.111275 34.938739,0.484673 6.58204,6.582043 7.88268,13.701172 7.49935,41.048171 l -0.33192,23.68024 -8.95427,0.36058 c -5.33955,0.21502 -9.61711,-0.18953 -10.59624,-1.00214 -1.24124,-1.03013 -1.73456,-6.87397 -2.02135,-23.94436 l -0.37936,-22.581646 -3.421666,-2.94061 c -3.890544,-3.343569 -9.086523,-3.787302 -14.084403,-1.202798 -5.781459,2.989709 -6.721781,6.77673 -7.441458,29.969504 l -0.662231,21.34147 -9.469682,0.3565 c -6.933428,0.26103 -9.633436,-0.0702 -10.081098,-1.23682 z"
       style="fill:#ffffff;stroke-width:1.21951" />
    <path
       transform="scale(0.26458333)"
       id="path152"
       d="m 28.105984,45.634987 c -4.969246,-2.514467 -8.879249,-9.351755 -8.108475,-14.17901 1.99704,-12.507208 18.82084,-16.29951 25.284715,-5.699502 4.373164,7.171485 1.773507,16.015645 -5.7582,19.589674 -4.708597,2.234375 -7.436762,2.303389 -11.41804,0.288838 z"
       style="fill:#ffffff;stroke-width:1.21951" />
  </g>
</svg>
